<?xml version="1.0" standalone="no"?><!DOCTYPE svg PUBLIC "-//W3C//DTD SVG 1.1//EN" "http://www.w3.org/Graphics/SVG/1.1/DTD/svg11.dtd"><svg t="1616079151679" class="icon" viewBox="0 0 1024 1024" version="1.1" xmlns="http://www.w3.org/2000/svg" p-id="8945" width="48" height="48" xmlns:xlink="http://www.w3.org/1999/xlink"><defs><style type="text/css"></style></defs><path d="M469.35 1020.885c-88.28-7.894-168.97-36.056-240.563-83.954C157.48 889.206 96.74 820.908 58.277 745.154l-13.77-27.101H221.82l15.29 18.665c39.646 48.398 100.05 89.453 160.953 109.414 41.33 13.535 59.74 16.218 111.188 16.167 53.488-0.051 69.481-2.377 111.413-16.177a359.748 359.748 0 0 0 185.443-140.35c8.771-12.954 32.66-58.067 32.66-61.658 0-0.979-26.081-1.795-57.966-1.795h-57.966l-40.789-45.338c-22.43-24.929-43.604-48.572-47.052-52.53l-6.283-7.2-58.077 51.509c-31.946 28.335-58.619 51.509-59.261 51.509-0.663 0-29.927-23.103-65.034-51.356l-63.851-51.356-4.662 5.212c-2.57 2.876-23.888 25.836-47.378 51.04l-42.696 45.807-81.13 1.357c-44.614 0.734-105.22 1.346-134.678 1.346h-53.57l-3.12-13.82c-6.192-27.204-9.65-51.153-11.985-82.895-6.6-89.83 12.545-183.8 54.1-265.48 25.326-49.776 54.997-90.453 95.674-131.17 34.404-34.414 66.4-58.568 109.831-82.884C334.334 26.066 409.038 5.198 490.84 2.362c90.738-3.131 173.948 15.32 251.508 55.773 135.239 70.542 231.637 196.59 264.032 345.253l3.917 17.932-78.682-0.53-78.67-0.541-7.14-21.318C805.677 279.358 699.09 187.999 572.856 165.029c-32.313-5.886-87.78-6.314-119.888-0.918-98.674 16.554-187.483 74.367-240.992 156.873-28.192 43.472-45.124 88.392-52.824 140.196-6.018 40.422-10.057 35.822 31.497 35.822h35.475l71.561-92.614c39.372-50.938 72.45-92.615 73.52-92.615 1.072 0 32.6 32.232 70.074 71.634 37.463 39.402 68.95 71.633 69.96 71.633 1.01 0 25.877-32.048 55.273-71.215l53.427-71.215 81.272 93.165 81.272 93.175 117.033 0.051c111.932 0.041 117.093 0.204 118.236 3.825 1.428 4.519-1.969 60.77-4.937 81.67-10.77 75.632-40.88 153.232-83.598 215.41-21.317 31.038-34.138 46.328-62.667 74.785-79.202 78.977-179.894 128.61-290.267 143.073-30.477 3.998-80.752 5.467-106.945 3.121z" fill="#858585" p-id="8946"></path></svg>